<svg viewBox="0 0 330 200" xmlns="http://www.w3.org/2000/svg"><g><g><g><g><g><line x1="41.171875" y1="177" x2="36.171875" y2="177" style="visibility: inherit;" fill="rgb(0, 0, 0)" stroke="rgb(204, 204, 204)" stroke-width="1px"></line><line x1="41.171875" y1="154.875" x2="36.171875" y2="154.875" style="visibility: inherit;" fill="rgb(0, 0, 0)" stroke="rgb(204, 204, 204)" stroke-width="1px"></line><line x1="41.171875" y1="132.75" x2="36.171875" y2="132.75" style="visibility: inherit;" fill="rgb(0, 0, 0)" stroke="rgb(204, 204, 204)" stroke-width="1px"></line><line x1="41.171875" y1="110.625" x2="36.171875" y2="110.625" style="visibility: inherit;" fill="rgb(0, 0, 0)" stroke="rgb(204, 204, 204)" stroke-width="1px"></line><line x1="41.171875" y1="88.5" x2="36.171875" y2="88.5" style="visibility: inherit;" fill="rgb(0, 0, 0)" stroke="rgb(204, 204, 204)" stroke-width="1px"></line><line x1="41.171875" y1="66.375" x2="36.171875" y2="66.375" style="visibility: inherit;" fill="rgb(0, 0, 0)" stroke="rgb(204, 204, 204)" stroke-width="1px"></line><line x1="41.171875" y1="44.25" x2="36.171875" y2="44.25" style="visibility: inherit;" fill="rgb(0, 0, 0)" stroke="rgb(204, 204, 204)" stroke-width="1px"></line><line x1="41.171875" y1="22.125" x2="36.171875" y2="22.125" style="visibility: inherit;" fill="rgb(0, 0, 0)" stroke="rgb(204, 204, 204)" stroke-width="1px"></line><line x1="41.171875" y1="0" x2="36.171875" y2="0" style="visibility: inherit;" fill="rgb(0, 0, 0)" stroke="rgb(204, 204, 204)" stroke-width="1px"></line></g><g transform="translate(31.171875, 0)"><text x="0" y="177" dx="0em" dy="0.3em" style="text-anchor: end; visibility: hidden; font-family: Roboto, sans-serif; font-size: 12px; font-weight: 200;" fill="rgb(255, 255, 255)" stroke="none" stroke-width="1px">2</text><text x="0" y="154.875" dx="0em" dy="0.3em" style="text-anchor: end; visibility: inherit; font-family: Roboto, sans-serif; font-size: 12px; font-weight: 200;" fill="rgb(255, 255, 255)" stroke="none" stroke-width="1px">2.5</text><text x="0" y="132.75" dx="0em" dy="0.3em" style="text-anchor: end; visibility: hidden; font-family: Roboto, sans-serif; font-size: 12px; font-weight: 200;" fill="rgb(255, 255, 255)" stroke="none" stroke-width="1px">3</text><text x="0" y="110.625" dx="0em" dy="0.3em" style="text-anchor: end; visibility: inherit; font-family: Roboto, sans-serif; font-size: 12px; font-weight: 200;" fill="rgb(255, 255, 255)" stroke="none" stroke-width="1px">3.5</text><text x="0" y="88.5" dx="0em" dy="0.3em" style="text-anchor: end; visibility: hidden; font-family: Roboto, sans-serif; font-size: 12px; font-weight: 200;" fill="rgb(255, 255, 255)" stroke="none" stroke-width="1px">4</text><text x="0" y="66.375" dx="0em" dy="0.3em" style="text-anchor: end; visibility: inherit; font-family: Roboto, sans-serif; font-size: 12px; font-weight: 200;" fill="rgb(255, 255, 255)" stroke="none" stroke-width="1px">4.5</text><text x="0" y="44.25" dx="0em" dy="0.3em" style="text-anchor: end; visibility: hidden; font-family: Roboto, sans-serif; font-size: 12px; font-weight: 200;" fill="rgb(255, 255, 255)" stroke="none" stroke-width="1px">5</text><text x="0" y="22.125" dx="0em" dy="0.3em" style="text-anchor: end; visibility: inherit; font-family: Roboto, sans-serif; font-size: 12px; font-weight: 200;" fill="rgb(255, 255, 255)" stroke="none" stroke-width="1px">5.5</text><text x="0" y="0" dx="0em" dy="0.3em" style="text-anchor: end; visibility: hidden; font-family: Roboto, sans-serif; font-size: 12px; font-weight: 200;" fill="rgb(255, 255, 255)" stroke="none" stroke-width="1px">6</text></g><line x1="41.171875" y1="0" x2="41.171875" y2="177" fill="rgb(0, 0, 0)" stroke="rgb(204, 204, 204)" stroke-width="1px"></line></g></g><g transform="translate(41, 0)" clip-path="url(#clip_0)"><clipPath id="clip_0"><rect width="288" height="177"></rect></clipPath><g><g><g><line x1="0" y1="0" x2="0" y2="177" fill="rgb(0, 0, 0)" stroke="rgb(189, 189, 189)" stroke-width="1px" opacity="0.25"></line><line x1="32.092013888888886" y1="0" x2="32.092013888888886" y2="177" fill="rgb(0, 0, 0)" stroke="rgb(189, 189, 189)" stroke-width="1px" opacity="0.25"></line><line x1="64.18402777777777" y1="0" x2="64.18402777777777" y2="177" fill="rgb(0, 0, 0)" stroke="rgb(189, 189, 189)" stroke-width="1px" opacity="0.25"></line><line x1="96.27604166666666" y1="0" x2="96.27604166666666" y2="177" fill="rgb(0, 0, 0)" stroke="rgb(189, 189, 189)" stroke-width="1px" opacity="0.25"></line><line x1="128.36805555555554" y1="0" x2="128.36805555555554" y2="177" fill="rgb(0, 0, 0)" stroke="rgb(189, 189, 189)" stroke-width="1px" opacity="0.25"></line><line x1="160.46006944444446" y1="0" x2="160.46006944444446" y2="177" fill="rgb(0, 0, 0)" stroke="rgb(189, 189, 189)" stroke-width="1px" opacity="0.25"></line><line x1="192.55208333333331" y1="0" x2="192.55208333333331" y2="177" fill="rgb(0, 0, 0)" stroke="rgb(189, 189, 189)" stroke-width="1px" opacity="0.25"></line><line x1="224.64409722222223" y1="0" x2="224.64409722222223" y2="177" fill="rgb(0, 0, 0)" stroke="rgb(189, 189, 189)" stroke-width="1px" opacity="0.25"></line><line x1="256.7361111111111" y1="0" x2="256.7361111111111" y2="177" fill="rgb(0, 0, 0)" stroke="rgb(189, 189, 189)" stroke-width="1px" opacity="0.25"></line><line x1="288.828125" y1="0" x2="288.828125" y2="177" fill="rgb(0, 0, 0)" stroke="rgb(189, 189, 189)" stroke-width="1px" opacity="0.25"></line></g><g><line x1="0" y1="177" x2="288.828125" y2="177" fill="rgb(0, 0, 0)" stroke="rgb(189, 189, 189)" stroke-width="1px" opacity="0.25"></line><line x1="0" y1="154.875" x2="288.828125" y2="154.875" fill="rgb(0, 0, 0)" stroke="rgb(189, 189, 189)" stroke-width="1px" opacity="0.25"></line><line x1="0" y1="132.75" x2="288.828125" y2="132.75" fill="rgb(0, 0, 0)" stroke="rgb(189, 189, 189)" stroke-width="1px" opacity="0.25"></line><line x1="0" y1="110.625" x2="288.828125" y2="110.625" fill="rgb(0, 0, 0)" stroke="rgb(189, 189, 189)" stroke-width="1px" opacity="0.25"></line><line x1="0" y1="88.5" x2="288.828125" y2="88.5" fill="rgb(0, 0, 0)" stroke="rgb(189, 189, 189)" stroke-width="1px" opacity="0.25"></line><line x1="0" y1="66.375" x2="288.828125" y2="66.375" fill="rgb(0, 0, 0)" stroke="rgb(189, 189, 189)" stroke-width="1px" opacity="0.25"></line><line x1="0" y1="44.25" x2="288.828125" y2="44.25" fill="rgb(0, 0, 0)" stroke="rgb(189, 189, 189)" stroke-width="1px" opacity="0.25"></line><line x1="0" y1="22.125" x2="288.828125" y2="22.125" fill="rgb(0, 0, 0)" stroke="rgb(189, 189, 189)" stroke-width="1px" opacity="0.25"></line><line x1="0" y1="0" x2="288.828125" y2="0" fill="rgb(0, 0, 0)" stroke="rgb(189, 189, 189)" stroke-width="1px" opacity="0.25"></line></g></g></g><g><g><line x1="0" y1="265.5" x2="288.828125" y2="265.5" fill="rgb(0, 0, 0)" stroke="rgb(153, 153, 153)" stroke-width="1.5px"></line></g></g><g><g><line x1="32.092013888888886" y1="0" x2="32.092013888888886" y2="177" fill="rgb(0, 0, 0)" stroke="rgb(153, 153, 153)" stroke-width="1.5px"></line></g></g><g><g><g><g><g><path stroke="rgb(255, 112, 67)" stroke-width="2px" d="M37.22031770833333,-4.8019343797175775L37.54123784722222,0.7351257134949316L37.862157986111114,-5.289751435429604L38.50399826388889,-8.94312513923264L38.824918402777776,5.732107960063578L39.14583854166667,-1.9898529273243013L39.46675868055556,12.201504329341377L39.787678819444444,19.13226756863613L40.10859895833333,15.038580327042599L40.429519097222226,4.4818689445846704L40.75043923611111,8.945508495972856L41.071359375,-1.0154728451877473L41.39227951388889,5.3317314909007605L41.71319965277778,13.66910213526812L42.03411979166666,8.813530720714892L42.355039930555556,16.40481239024624L42.67596006944444,19.938136254375443L42.99688020833334,25.296016748053816L43.31780034722222,36.68558587061886L43.63872048611111,34.139766651523416L43.959640625,32.151424847535864L44.28056076388889,34.95040467973315L44.60148090277777,28.24055844001614L44.92240104166667,21.936090684168L45.243321180555554,35.8324450462649L45.56424131944445,30.422751698846426L45.88516145833333,29.580973454443843L46.20608159722222,33.824159186697926L46.52700173611111,26.549527669160536L46.847921875000004,18.370071758838357L47.168842013888884,21.892752093215595L47.48976215277778,21.97296590932774L47.810682291666666,28.221865483180842L48.13160243055556,40.556340592040684L48.45252256944444,45.305821977241465L48.773442708333334,47.02698760163309L49.09436284722222,47.63947537500681L49.415282986111116,38.79294163559361L49.736203124999996,29.412856331905687L50.05712326388889,21.20392369713527L50.37804340277778,34.646448036948755L50.69896354166667,38.79481538589052L51.01988368055555,49.12404675755137L51.340803819444446,48.54580433054703L51.66172395833333,46.65999888708551L51.98264409722222,47.51084789830663L52.30356423611111,54.30058699368375L52.624484375,40.65822561692554L52.94540451388889,48.867678213783286L53.266324652777776,51.611411075990304L53.58724479166666,53.3985484488016L53.90816493055556,57.4277319936279L54.229085069444444,51.71766543557188L54.55000520833333,54.5555787573453L54.87092534722222,60.29215725005845L55.19184548611111,58.542143057234135L55.512765625,62.66148502257289L55.83368576388889,58.884818498056084L56.154605902777774,54.333894791460615L56.47552604166667,61.3642463578323L56.796446180555556,49.55218819937348L57.11736631944444,62.40253703690314L57.43828645833333,63.39320936737502L57.759206597222224,53.384190648424905L58.08012673611111,69.75359128095405L58.401046875,79.45101991997778L58.721967013888886,69.32839789215696L59.04288715277778,62.30610760583862L59.36380729166667,55.48554444631568L59.684727430555554,54.02707443428415L60.00564756944444,64.45682221527326L60.326567708333336,62.04443482086318L60.64748784722222,87.56677932456289L60.96840798611111,82.74369217702838L61.289328125,80.51090427487546L61.61024826388889,76.55312960296546L61.93116840277777,71.6405177172999L62.252088541666666,76.93508363109711L62.57300868055555,78.59407167638473L62.89392881944445,71.51641877296647L63.21484895833333,78.55546421887327L63.53576909722222,81.36799904752881L63.85668923611111,72.59089391856857L64.177609375,73.53504906552713L64.49852951388888,78.30592009101915L64.81944965277778,69.17489903375272L65.14036979166667,73.52846813919997L65.46128993055555,79.68952732517037L65.78221006944445,85.92354865809509L66.10313020833333,83.59400622809066L66.42405034722222,83.68402801015456L66.74497048611111,81.78654862677143L67.065890625,72.23997188350609L67.38681076388889,76.6369917913738L67.70773090277778,85.81795187738317L68.02865104166666,94.49273726908432L68.34957118055556,93.48891626338998L68.67049131944444,95.23910557353997L68.99141145833333,91.12066204026047L69.31233159722223,97.58676864310924L69.6332517361111,89.16794687273993L69.954171875,88.57943976976213L70.2750920138889,90.42099331055724L70.59601215277777,85.97547439476635L70.91693229166667,92.9823476537513L71.23785243055555,101.97788653757854L71.55877256944444,95.43374110452345L71.87969270833334,104.45659576172837L72.20061284722222,92.00479980895048L72.5215329861111,88.51475198620037L72.84245312499999,86.93353032799646L73.16337326388889,93.97282676537088L73.48429340277778,84.11726506137404L73.80521354166666,87.40821888198589L74.12613368055555,79.81153680175625L74.44705381944445,78.07613955313016L74.76797395833334,84.35709763988285L75.08889409722221,85.05396181001917L75.4098142361111,90.5354705909172L75.730734375,83.31699692364214L76.05165451388889,83.65343663189219L76.37257465277777,91.21142576392535L76.69349479166667,86.67250813398388L77.01441493055556,93.88262794824615L77.33533506944445,101.25992237575159L77.65625520833332,97.00586320786063L77.97717534722221,104.98668795721758L78.29809548611111,116.41039134202617L78.619015625,117.9417094298495L78.9399357638889,108.36315230776627L79.26085590277778,108.06107857376196L79.58177604166667,101.63376547425901L79.90269618055557,104.76271184402654L80.22361631944443,104.33536825250357L80.54453645833333,97.71790643734198L80.86545659722222,101.53405885817088L81.18637673611111,96.21127212596818L81.50729687500001,88.78080404134325L81.82821701388889,100.36110570628482L82.14913715277778,97.45236727356337L82.47005729166666,100.25377018904344L82.79097743055554,98.99351475033555L83.11189756944444,108.51599062319632L83.43281770833333,101.63988998434563L83.75373784722223,102.29396354497443L84.07465798611112,97.71878206337075L84.395578125,100.23542074921477L84.7164982638889,99.0045208726093L85.03741840277777,101.0696788664916L85.35833854166665,109.15356893755549L85.67925868055555,102.948576995239L86.00017881944444,105.82130374223313L86.32109895833334,107.77917560166313L86.64201909722223,116.37069087163324L86.96293923611111,110.0756821211321L87.283859375,108.7500251517381L87.60477951388889,109.71228575621163L87.92569965277777,101.25612659403153L88.24661979166666,98.27780053108019L88.56753993055555,106.84608205013919L88.88846006944445,99.52019953640371L89.20938020833334,101.3126378054146L89.53030034722222,97.60169920889881L89.85122048611112,102.021202668955L90.172140625,110.40927249515657L90.49306076388889,104.69949528172377L90.81398090277777,96.53317907211043L91.13490104166667,93.43340458128964L91.45582118055556,100.20644575151272L91.77674131944445,93.84977306003849L92.09766145833333,87.660832864496L92.41858159722223,94.59596899894052L92.73950173611111,115.54597608892425L93.060421875,108.96262617497624L93.38134201388888,101.00123195403205L93.70226215277778,99.82001176210275L94.02318229166667,101.99405631263274L94.34410243055557,98.16813810371887L94.66502256944445,105.04354839148243L94.98594270833333,105.399069098366L95.30686284722222,94.4081736253099L95.62778298611111,94.74181899108865L95.948703125,104.8726154367827L96.26962326388889,105.77889009718315L96.59054340277778,98.9799914145721L96.91146354166668,105.87530006076413L97.23238368055556,107.98022182646702L97.55330381944444,102.63557364859169L97.87422395833333,110.09996332119695L98.19514409722223,108.09147714013332L98.5160642361111,112.34584464093729L98.836984375,109.58877404606751L99.1579045138889,116.45082182929762L99.47882465277779,107.65270919350296L99.79974479166667,116.45689312665169L100.12066493055555,117.6222911122352L100.44158506944444,112.33456536787212L100.76250520833334,106.6330009976474L101.08342534722222,103.58511959787891L101.40434548611111,104.74352824256829L101.725265625,107.29971549252278L102.0461857638889,101.77070287072424L102.36710590277778,110.9975754451976L102.68802604166666,99.32319469643986L103.00894618055555,104.17942018147322L103.32986631944445,111.3057413270236L103.65078645833333,111.15446621001726L103.97170659722222,103.97689679754356L104.29262673611112,103.67305042441238L104.61354687500001,103.02151559648243L104.93446701388888,104.66812047277287L105.25538715277777,116.2256483847761L105.57630729166667,112.46378887980363L105.89722743055556,103.95909355455152L106.21814756944444,110.11149994357532L106.53906770833333,118.50081798925463L106.85998784722223,111.22229245599785L107.18090798611112,98.45192415295051L107.50182812499999,92.93429478870635L107.82274826388888,99.50253000776054L108.14366840277778,102.48609461140681L108.46458854166667,94.97891243548422L108.78550868055555,97.72322371155755L109.10642881944445,114.1081027659818L109.42734895833334,104.4540677352574L109.74826909722223,118.06038595937648L110.0691892361111,120.55792037071559L110.390109375,121.15570122850998L110.71102951388889,119.18823756488004L111.03194965277778,113.43373397416973L111.35286979166666,111.64370686666432L111.67378993055556,112.23605393681682L111.99471006944445,107.61528682299705L112.31563020833335,108.7816857551828L112.63655034722221,108.76243138642879L112.9574704861111,101.88783617217405L113.278390625,100.60165955662168L113.5993107638889,122.27673770212792L113.92023090277777,127.40320530667104L114.24115104166667,117.9106714912307L114.56207118055556,117.38832079100918L114.88299131944444,114.25421847539134L115.20391145833332,115.81836884997477L115.52483159722222,117.69994243253583L115.84575173611111,120.88349917095492L116.166671875,120.17593218422884L116.48759201388889,112.88377912960621L116.80851215277778,104.4727620132099L117.12943229166667,104.85445884748282L117.45035243055555,91.13487069537628L117.77127256944443,107.1560066266679L118.09219270833333,119.31825295232673L118.41311284722222,121.85295361961686L118.73403298611112,108.21980663946725L119.054953125,112.52915702349814L119.37587326388889,114.7134950523786L119.69679340277779,117.78966517241075L120.01771354166667,116.0368601977305L120.33863368055555,113.19381299611787L120.65955381944444,112.15009140370404L120.98047395833333,112.39208728908369L121.30139409722223,115.7816234042577L121.62231423611111,116.85375697674347L121.943234375,113.42120065249199L122.2641545138889,125.36619666789291L122.58507465277778,120.09016902193021L122.90599479166666,123.76396297779436L123.22691493055555,114.96959652523252L123.54783506944445,114.50612884771854L123.86875520833334,110.18136781461256L124.18967534722222,117.15225845579634L124.51059548611111,115.13144313099582L124.831515625,119.52440857173562L125.15243576388889,118.5151931719873L125.47335590277777,117.61401011210047L125.79427604166666,116.0925997594676L126.11519618055556,107.19342477915775L126.43611631944445,95.66248316644486L126.75703645833333,107.16798309730802L127.07795659722223,107.54731395392011L127.3988767361111,105.00789908497565L127.719796875,113.42049310165068L128.0407170138889,112.4361714217509L128.36163715277777,113.8383974131015L128.68255729166665,113.68490812158984L129.00347743055556,114.488034564116L129.32439756944444,114.63463072649145L129.64531770833335,117.92342715663614L129.9662378472222,108.2316215109998L130.2871579861111,117.80787256194198L130.608078125,114.47670487661983L130.9289982638889,118.3623466259231L131.24991840277778,113.92265995538173L131.57083854166666,113.02799804327452L131.89175868055557,108.47280296872596L132.21267881944445,109.27488017791832L132.53359895833333,111.45051491686299L132.8545190972222,108.42279911296724L133.17543923611112,111.10174927864765L133.496359375,108.52527178379475L133.81727951388888,111.19213572175849L134.13819965277779,110.89231326002805L134.45911979166667,117.08323632370787L134.78003993055555,115.06810690576648L135.10096006944443,115.48874603280316L135.42188020833333,113.34402522187764L135.74280034722221,111.17260714019142L136.06372048611112,111.1035011985588L136.384640625,118.81128630511094L136.70556076388888,117.5306078044899L137.0264809027778,106.94805528213546L137.34740104166667,99.6938846915362L137.66832118055555,92.36234726961838L137.98924131944443,82.71163224253887L138.31016145833334,99.64007663174766L138.63108159722222,108.2881651606816L138.9520017361111,113.39241976062407L139.272921875,113.49878036093682L139.5938420138889,109.940103144121L139.91476215277777,104.84828687350263L140.23568229166665,114.35172822857086L140.55660243055556,115.05049568882099L140.87752256944444,124.07895401996679L141.19844270833335,117.54577419687692L141.51936284722223,111.07458399253717L141.8402829861111,115.87658900331039L142.16120312500001,110.72171355671034L142.4821232638889,111.7673678480765L142.80304340277777,116.40074308414346L143.12396354166665,109.2905318242257L143.44488368055556,109.76058008086355L143.76580381944444,108.7440785516004L144.08672395833335,116.13403575114609L144.40764409722223,124.45525856311443L144.7285642361111,121.81899273094727L145.049484375,130.3580466967654L145.3704045138889,139.15657928358505L145.69132465277778,140.05669271213407L146.01224479166666,135.7546297744667L146.33316493055557,137.0227996847484L146.65408506944442,139.73045079359133L146.97500520833333,140.2859739568753L147.2959253472222,117.4685176436259L147.61684548611112,109.39275297070465L147.937765625,116.57297320690702L148.2586857638889,123.73654057697624L148.57960590277779,123.94707492659192L148.90052604166667,126.58760084909022L149.22144618055557,128.9308892142881L149.54236631944443,128.1431412727898L149.86328645833333,125.5228709239522L150.18420659722221,126.31038996331449L150.50512673611112,135.13141663523052L150.826046875,132.12687067777833L151.14696701388888,122.92134449834181L151.4678871527778,120.91874841424557L151.78880729166664,111.76576146824796L152.10972743055555,115.10616508331084L152.43064756944443,126.53771712306846L152.75156770833334,128.19010270788496L153.07248784722222,129.8985684225215L153.39340798611113,125.20598318035923L153.714328125,125.41853314552023L154.0352482638889,136.6399726504881L154.3561684027778,136.68255248277183L154.67708854166665,134.89449249868863L154.99800868055556,130.31869890192314L155.31892881944444,137.9703750485132L155.63984895833335,138.52414468967615L155.96076909722223,143.51017315413773L156.2816892361111,141.38282243744266L156.60260937500001,134.64362321100077L156.92352951388887,126.6303708899107L157.24444965277777,125.4226229875139L157.56536979166665,129.39925822549174L157.88628993055556,133.49523759444423L158.20721006944444,134.08392677640836L158.52813020833332,128.8605842705722L158.84905034722223,122.62582176423999L159.1699704861111,117.07604480681975L159.49089062500002,118.11501031457281L159.81181076388887,125.8296713908845L160.13273090277778,133.92753053190313L160.45365104166666,128.48349530984166L160.77457118055557,133.1888861148906L161.09549131944445,131.9676936560483L161.41641145833333,138.53058434090684L161.73733159722224,137.35514924860996L162.0582517361111,143.1312309857428L162.379171875,136.5556179497373L162.70009201388888,127.48195189319443L163.02101215277779,134.99937440206045L163.34193229166667,132.91778162270447L163.66285243055555,128.91260735481774L163.98377256944445,119.224590136348L164.30469270833333,135.00282630547213L164.62561284722224,140.87817333474354L164.9465329861111,140.01867419680713L165.267453125,135.33110772490951L165.58837326388888,138.50362493348393L165.90929340277776,131.71355832667513L166.23021354166667,136.42352164418318L166.55113368055555,132.67399156469594L166.87205381944446,131.46697018372112L167.1929739583333,134.67198227540908L167.51389409722222,142.52424544510995L167.8348142361111,134.7823572302923L168.155734375,131.1492246237436L168.4766545138889,136.93654452842708L168.79757465277777,131.83351978708643L169.11849479166668,122.54498904376828L169.43941493055556,124.44662457364561L169.76033506944447,122.12727459465125L170.08125520833332,121.80742869493162L170.40217534722223,122.06129756997106L170.7230954861111,119.62520894664573L171.044015625,127.47495044027593L171.3649357638889,129.9799293324639L171.68585590277777,124.49201624663411L172.00677604166668,134.0912814919456L172.32769618055556,139.40094549562363L172.64861631944444,143.07190143529073L172.96953645833332,146.2934889761418L173.29045659722223,141.10512170599756L173.6113767361111,148.05410898570332L173.932296875,139.4973388245351L174.2532170138889,146.01767094914L174.57413715277778,142.14544355859684L174.8950572916667,139.85956814283327L175.21597743055554,140.95709411140797L175.53689756944445,136.9699960698874L175.85781770833333,135.5566189378614L176.1787378472222,133.2562934929201L176.49965798611112,138.25159053647928L176.820578125,144.17758572485693L177.1414982638889,127.27473185292868L177.46241840277779,141.78280018467896L177.78333854166667,138.9370845001888L178.10425868055555,131.16115154277992L178.42517881944443,136.40336230666463L178.74609895833333,130.6299532608451L179.06701909722221,142.12119719721446L179.38793923611112,134.43061393104534L179.708859375,138.7507949686202L180.0297795138889,142.90233612156823L180.35069965277776,138.0564293867166L180.67161979166667,142.63900437389702L180.99253993055555,136.20205008050735L181.31346006944443,135.57088930047115L181.63438020833334,137.29818824909069L181.95530034722222,140.10348138798437L182.27622048611113,136.81923421376445L182.597140625,138.35415020080507L182.9180607638889,144.33335010106623L183.23898090277777,139.87956721720255L183.55990104166665,134.95551342449875L183.88082118055556,132.87010335136824L184.20174131944444,125.61995014673099L184.52266145833335,137.5700011082031L184.84358159722223,138.4276791469775L185.16450173611113,139.4062843833281L185.485421875,123.90463002407036L185.80634201388887,134.29919097354104L186.12726215277777,132.73861297088914L186.44818229166665,136.26672325204643L186.76910243055556,138.09699173969528L187.09002256944444,142.38680460573732L187.41094270833335,135.32512923789918L187.73186284722223,139.53445485063133L188.0527829861111,145.46649200217567L188.373703125,150.33901058731462L188.69462326388887,147.8970801061272L189.01554340277778,150.1730778232741L189.33646354166666,151.36423394772575L189.65738368055557,139.65623436983327L189.97830381944445,136.603015772199L190.29922395833336,131.9316347787949L190.6201440972222,133.4161410540445L190.9410642361111,126.19484840691705L191.261984375,131.4158057144917L191.58290451388888,135.35647381375057L191.90382465277779,138.32672868388784L192.22474479166667,146.7694523943537L192.54566493055557,139.9528541215106L192.86658506944445,142.5058516292479L193.18750520833336,141.7667578714315L193.50842534722221,145.5484462176099L193.8293454861111,151.43384222950544L194.150265625,147.63646476725344L194.47118576388888,143.29458056247L194.7921059027778,139.76953875038484L195.11302604166667,135.92818400271807L195.43394618055558,135.82265830640836L195.75486631944443,134.56109247568156L196.0757864583333,132.9034891483957L196.39670659722222,142.97191245304194L196.7176267361111,146.18142489759114L197.038546875,144.27765157322875L197.3594670138889,155.0281869798946L197.6803871527778,162.52250887334628L198.00130729166668,160.48160777914694L198.32222743055553,155.7828055764924L198.64314756944444,156.6537658539826L198.96406770833332,157.52831607862797L199.28498784722223,154.96717318179896L199.6059079861111,144.93132209946327L199.92682812500001,140.58191399675377L200.2477482638889,136.57079997600178L200.5686684027778,149.42775587404407L200.88958854166665,151.33252596953295L201.21050868055553,141.07944402753583L201.53142881944444,140.4946938375191L201.85234895833332,145.790574265692L202.17326909722223,147.19044067452748L202.4941892361111,156.67147852176666L202.81510937500002,147.8292434763565L203.1360295138889,154.72015002677767L203.45694965277775,149.3617798287268L203.77786979166666,146.3284206508753L204.09878993055554,137.4338303875421L204.41971006944445,129.20724792906609L204.74063020833333,137.99419331329443L205.06155034722224,137.28430809841979L205.38247048611112,143.3452226535465L205.70339062500003,141.2238140711776L206.02431076388888,140.32624586877773L206.34523090277776,147.1291952637288L206.66615104166667,137.919367605892L206.98707118055555,140.13913267519902L207.30799131944445,140.8392141918351L207.62891145833333,141.7728592789179L207.94983159722224,139.44910072302855L208.27075173611112,147.3084852159979L208.59167187499997,149.61588768130318L208.91259201388888,148.122895026003L209.23351215277776,138.99656719195525L209.55443229166667,140.72556628124525L209.87535243055555,132.52629898391132L210.19627256944446,140.2262868309138L210.51719270833334,138.88079062844025L210.83811284722222,139.36148180809442L211.1590329861111,141.801923789065L211.47995312499998,138.84568328707272L211.8008732638889,142.6105613413385L212.12179340277777,151.8091281475384L212.44271354166668,148.20999382863994L212.76363368055556,140.22060477096173L213.08455381944447,141.7749365291496L213.40547395833335,142.0753444982469L213.7263940972222,139.11768775897622L214.0473142361111,143.96738086770415L214.368234375,140.96987220424674L214.6891545138889,153.59629409777082L215.01007465277777,162.65691936771248L215.33099479166668,159.43608141398533L215.65191493055556,149.30012197766365L215.97283506944444,150.32331523581541L216.29375520833335,147.75081222822786L216.6146753472222,141.54309078198983L216.9355954861111,145.39676668728777L217.256515625,144.49572667172782L217.5774357638889,151.56853034908315L217.89835590277778,160.50387913474285L218.21927604166666,161.10731116824653L218.54019618055557,151.90963663991275L218.86111631944442,152.734642066574L219.18203645833333,148.71261958957663L219.5029565972222,141.07287028241726L219.82387673611112,143.08938462024076L220.144796875,137.99480256131378L220.4657170138889,136.16226523334436L220.78663715277779,138.97050057181508L221.10755729166667,140.64983338313573L221.42847743055557,143.6760532033281L221.74939756944443,149.3520424110792L222.07031770833333,143.21997705358876L222.39123784722221,144.7246178105987L222.71215798611112,144.29742427560785L223.033078125,143.41935737069306L223.35399826388888,143.45972861728583L223.6749184027778,156.94940880466407L223.99583854166664,152.6137674303586L224.31675868055555,153.12394705127087L224.63767881944443,153.7446944636727L224.95859895833334,158.29349998966603L225.27951909722222,149.71602497300952L225.60043923611113,155.507824002513L225.921359375,144.67684131789727L226.2422795138889,147.61899808602644L226.5631996527778,144.44526974890894L226.88411979166665,132.71003260930937L227.20503993055556,142.41873001289702L227.52596006944444,142.62907053966723L227.84688020833335,143.5596802827084L228.16780034722223,146.13009148814464L228.4887204861111,141.89800726162304L228.80964062500001,133.79870094529932L229.13056076388887,139.55167137189L229.45148090277777,133.83742138506943L229.77240104166665,134.62632713772044L230.09332118055556,142.5000131491255L230.41424131944444,132.87065379401633L230.73516145833332,139.56336267340535L231.05608159722223,148.91645941465111L231.3770017361111,142.54968307810432L231.69792187500002,147.68736676214579L232.01884201388887,154.02585306071308L232.33976215277778,152.11126328887383L232.66068229166666,149.11252928603793L232.98160243055557,140.32867627638043L233.30252256944445,151.5672500926105L233.62344270833333,146.6654445408492L233.94436284722224,153.52753460876397L234.2652829861111,151.79427809996756L234.586203125,146.74090587784858L234.90712326388888,153.00854980760818L235.22804340277779,156.244470905149L235.54896354166667,149.46186422758345L235.86988368055555,147.1387846437278L236.19080381944445,148.03944432539836L236.51172395833333,145.61392507435738L236.83264409722224,149.5520802347771L237.1535642361111,147.44941904597948L237.474484375,143.54808441670818L237.79540451388888,137.5720793954854L238.11632465277776,132.24863031818418L238.43724479166667,135.83660883494588L238.75816493055555,147.01644219629986L239.07908506944446,146.3608361105503L239.4000052083333,137.7727849734057L239.72092534722222,149.3497531564372L240.0418454861111,139.88844681688175L240.362765625,143.56257806365505L240.6836857638889,143.95273996677884L241.00460590277777,150.95955463222796L241.32552604166668,150.39144642336447L241.64644618055556,150.8771039914088L241.96736631944447,152.37923595136382L242.28828645833332,158.40752625957717L242.60920659722223,152.24665975866074L242.9301267361111,149.3293813723168L243.251046875,156.60500980960376L243.5719670138889,149.76874896017938L243.89288715277777,147.02720258312362L244.21380729166668,138.05527173088157L244.53472743055556,139.7793592846761L244.85564756944444,141.44776264645873L245.17656770833332,143.63205716501602L245.49748784722223,146.6962669938262L245.8184079861111,148.50978511866663L246.139328125,156.82986864028416L246.4602482638889,151.03974550114893L246.78116840277778,145.16430934159052L247.1020885416667,155.0651746027952L247.42300868055554,158.1687801500133L247.74392881944445,153.43238150000403L248.06484895833333,156.0010451967706L248.3857690972222,155.8910003718847L248.70668923611112,152.119113625116L249.027609375,148.5194921142023L249.3485295138889,147.69955935753353L249.66944965277779,140.94238044427019L249.99036979166667,144.00866282943593L250.31128993055555,143.62153359033886L250.63221006944443,143.6716801391734L250.95313020833333,147.4579177657779L251.27405034722221,136.92437686681842L251.59497048611112,142.68516284322794L251.915890625,145.83558672723805L252.2368107638889,150.84216145311376L252.55773090277776,148.97601773521055L252.87865104166667,145.6063198458001L253.19957118055555,148.6279223090914L253.52049131944443,152.61556828776042L253.84141145833334,155.22871885752105L254.16233159722222,152.4042805078949L254.48325173611113,151.66600232382567L254.804171875,155.1793865505454L255.1250920138889,158.12363716027718L255.44601215277777,149.75413982904902L255.76693229166665,149.70585268042655L256.0878524305556,149.8211793738733" style="fill: none;" fill="none"></path></g></g></g></g><g opacity="0.2"><g><g><g><path stroke="rgb(255, 112, 67)" stroke-width="2px" d="M35.93663715277778,-18.56343913078308L36.257557291666664,5.144676089286804L36.57847743055556,-8.856574773788452L36.899397569444446,-10.437769889831543L37.22031770833333,3.132765769958496L37.54123784722222,9.03837275505066L37.862157986111114,-14.32553744316101L38.50399826388889,-9.708847761154175L38.824918402777776,27.744152784347534L39.14583854166667,-13.572540163993835L39.46675868055556,33.48826003074646L39.787678819444444,29.528330326080322L40.10859895833333,8.898078560829163L40.429519097222226,-11.353153109550476L40.75043923611111,15.640956401824951L41.071359375,-15.956929564476013L41.39227951388889,14.852532148361206L41.71319965277778,26.175153493881226L42.03411979166666,1.5301752090454102L42.355039930555556,27.791733384132385L42.67596006944444,25.23812162876129L42.99688020833334,33.33283710479736L43.31780034722222,53.76993906497955L43.63872048611111,30.321037888526917L43.959640625,29.168912172317505L44.28056076388889,39.148874402046204L44.60148090277777,18.17578911781311L44.92240104166667,12.479389071464539L45.243321180555554,56.676976561546326L45.56424131944445,22.30821168422699L45.88516145833333,28.31830608844757L46.20608159722222,40.18893778324127L46.52700173611111,15.637580394744873L46.847921875000004,6.100887894630432L47.168842013888884,27.176772594451904L47.48976215277778,22.093286633491516L47.810682291666666,37.59521484375L48.13160243055556,59.05805325508118L48.45252256944444,52.430044054985046L48.773442708333334,49.60873603820801L49.09436284722222,48.5582070350647L49.415282986111116,25.523141026496887L49.736203124999996,15.34272837638855L50.05712326388889,8.890524744987488L50.37804340277778,54.81023454666138L50.69896354166667,45.01736640930176L51.01988368055555,64.61789381504059L51.340803819444446,47.67844069004059L51.66172395833333,43.83129072189331L51.98264409722222,48.787121415138245L52.30356423611111,64.48519563674927L52.624484375,20.19468355178833L52.94540451388889,61.181857109069824L53.266324652777776,55.72701036930084L53.58724479166666,56.079254508018494L53.90816493055556,63.47150731086731L54.229085069444444,43.152565598487854L54.55000520833333,58.81244874000549L54.87092534722222,68.89702498912811L55.19184548611111,55.91712176799774L55.512765625,68.84049797058105L55.83368576388889,53.21981871128082L56.154605902777774,47.50750923156738L56.47552604166667,71.90977370738983L56.796446180555556,31.83410096168518L57.11736631944444,81.67806029319763L57.43828645833333,64.87921786308289L57.759206597222224,38.370662569999695L58.08012673611111,94.30769222974777L58.401046875,93.99716287851334L58.721967013888886,54.14446485042572L59.04288715277778,51.772672176361084L59.36380729166667,45.25469970703125L59.684727430555554,51.83936941623688L60.00564756944444,80.1014438867569L60.326567708333336,58.42585372924805L60.64748784722222,125.85029608011246L60.96840798611111,75.50906145572662L61.289328125,77.16172242164612L61.61024826388889,70.6164675951004L61.93116840277777,64.27159988880157L62.252088541666666,84.87693250179291L62.57300868055555,81.0825537443161L62.89392881944445,60.89993941783905L63.21484895833333,89.11403238773346L63.53576909722222,85.58680129051208L63.85668923611111,59.425236225128174L64.177609375,74.95128178596497L64.49852951388888,85.4622266292572L64.81944965277778,55.47836744785309L65.14036979166667,80.05882179737091L65.46128993055555,88.93111610412598L65.78221006944445,95.27458065748215L66.10313020833333,80.0996925830841L66.42405034722222,83.81906068325043L66.74497048611111,78.94032955169678L67.065890625,57.92010676860809L67.38681076388889,83.23252165317535L67.70773090277778,99.58939200639725L68.02865104166666,107.50491535663605L68.34957118055556,91.98318475484848L68.67049131944444,97.86438953876495L68.99141145833333,84.94299674034119L69.31233159722223,107.28592854738235L69.6332517361111,76.53971421718597L69.954171875,87.69667911529541L70.2750920138889,93.18332362174988L70.59601215277777,79.30719602108002L70.91693229166667,103.4926575422287L71.23785243055555,115.4711948633194L71.55877256944444,85.6175229549408L71.87969270833334,117.9908777475357L72.20061284722222,73.32710587978363L72.5215329861111,83.2796802520752L72.84245312499999,84.56169784069061L73.16337326388889,104.5317714214325L73.48429340277778,69.33392250537872L73.80521354166666,92.3446496129036L74.12613368055555,68.41651368141174L74.44705381944445,75.47304368019104L74.76797395833334,93.7785347700119L75.08889409722221,86.0992580652237L75.4098142361111,98.75773376226425L75.730734375,72.48928642272949L76.05165451388889,84.15809619426727L76.37257465277777,102.5484094619751L76.69349479166667,79.86413168907166L77.01441493055556,104.69780766963959L77.33533506944445,112.32586401700974L77.65625520833332,90.62477445602417L77.97717534722221,116.95792508125305L78.29809548611111,133.54594641923904L78.619015625,120.23868656158447L78.9399357638889,93.99531662464142L79.26085590277778,107.60796797275543L79.58177604166667,91.99279582500458L79.90269618055557,109.45613139867783L80.22361631944443,103.69435286521912L80.54453645833333,87.79171371459961L80.86545659722222,107.25828748941422L81.18637673611111,88.22709202766418L81.50729687500001,77.63510191440582L81.82821701388889,117.7315582036972L82.14913715277778,93.0892596244812L82.47005729166666,104.45587456226349L82.79097743055554,97.10313159227371L83.11189756944444,122.79970443248749L83.43281770833333,91.32573902606964L83.75373784722223,103.27507388591766L84.07465798611112,90.85600984096527L84.395578125,104.0103787779808L84.7164982638889,97.15817105770111L85.03741840277777,104.16741585731506L85.35833854166665,121.2794040441513L85.67925868055555,93.64108908176422L86.00017881944444,110.1303938627243L86.32109895833334,110.7159833908081L86.64201909722223,129.25796377658844L86.96293923611111,100.6331689953804L87.283859375,106.7615396976471L87.60477951388889,111.1556766629219L87.92569965277777,88.57188785076141L88.24661979166666,93.81031143665314L88.56753993055555,119.69850432872772L88.88846006944445,88.53137576580048L89.20938020833334,104.00129520893097L89.53030034722222,92.03529131412506L89.85122048611112,108.6504578590393L90.172140625,122.99137723445892L90.49306076388889,96.13482946157455L90.81398090277777,84.28370475769043L91.13490104166667,88.78374284505844L91.45582118055556,110.36600750684738L91.77674131944445,84.31476402282715L92.09766145833333,78.37742257118225L92.41858159722223,104.9986732006073L92.73950173611111,146.97098672389984L93.060421875,99.08760130405426L93.38134201388888,89.05914062261581L93.70226215277778,98.04818147420883L94.02318229166667,105.25512313842773L94.34410243055557,92.42926079034805L94.66502256944445,115.35666382312775L94.98594270833333,105.9323501586914L95.30686284722222,77.92183041572571L95.62778298611111,95.24228703975677L95.948703125,120.06881010532379L96.26962326388889,107.13830208778381L96.59054340277778,88.78164339065552L96.91146354166668,116.21826303005219L97.23238368055556,111.13760447502136L97.55330381944444,94.61860138177872L97.87422395833333,121.29654783010483L98.19514409722223,105.0787478685379L98.5160642361111,118.72739589214325L98.836984375,105.45316815376282L99.1579045138889,126.74389350414276L99.47882465277779,94.45554023981094L99.79974479166667,129.66316902637482L100.12066493055555,119.3703880906105L100.44158506944444,104.40297675132751L100.76250520833334,98.08065444231033L101.08342534722222,99.01329749822617L101.40434548611111,106.48114120960236L101.725265625,111.13399636745453L102.0461857638889,93.47718393802643L102.36710590277778,124.83788430690765L102.68802604166666,81.81162357330322L103.00894618055555,111.46375840902328L103.32986631944445,121.99522304534912L103.65078645833333,110.92755353450775L103.97170659722222,93.21054267883301L104.29262673611112,103.21728086471558L104.61354687500001,102.04421335458755L104.93446701388888,107.13802778720856L105.25538715277777,133.56194025278091L105.57630729166667,106.82099962234497L105.89722743055556,91.20205056667328L106.21814756944444,119.34010952711105L106.53906770833333,131.0847950577736L106.85998784722223,100.30450415611267L107.18090798611112,79.29637169837952L107.50182812499999,84.65785074234009L107.82274826388888,109.35488283634186L108.14366840277778,106.96144151687622L108.46458854166667,83.71813917160034L108.78550868055555,101.83969062566757L109.10642881944445,138.6854213476181L109.42734895833334,89.97301518917084L109.74826909722223,138.46986329555511L110.0691892361111,124.3042219877243L110.390109375,122.05237251520157L110.71102951388889,116.23704206943512L111.03194965277778,104.80197858810425L111.35286979166666,108.95866620540619L111.67378993055556,113.1245745420456L111.99471006944445,100.68413615226746L112.31563020833335,110.53128415346146L112.63655034722221,108.73354983329773L112.9574704861111,91.57594335079193L113.278390625,98.67239463329315L113.5993107638889,154.78935492038727L113.92023090277777,135.09290671348572L114.24115104166667,103.67187076807022L114.56207118055556,116.60479474067688L114.88299131944444,109.55306500196457L115.20391145833332,118.16459441184998L115.52483159722222,120.52230280637741L115.84575173611111,125.65883427858353L116.166671875,119.11458170413971L116.48759201388889,101.94554954767227L116.80851215277778,91.85623633861542L117.12943229166667,105.42700409889221L117.45035243055555,70.55548846721649L117.77127256944443,131.18771052360535L118.09219270833333,137.56162244081497L118.41311284722222,125.65500462055206L118.73403298611112,87.77008616924286L119.054953125,118.99318259954453L119.37587326388889,117.99000209569931L119.69679340277779,122.40392035245895L120.01771354166667,113.40765273571014L120.33863368055555,108.92924219369888L120.65955381944444,110.58450901508331L120.98047395833333,112.75508111715317L121.30139409722223,120.86592757701874L121.62231423611111,118.4619573354721L121.943234375,108.27236616611481L122.2641545138889,143.28369069099426L122.58507465277778,112.17612755298615L122.90599479166666,129.27465391159058L123.22691493055555,101.77804684638977L123.54783506944445,113.8109273314476L123.86875520833334,103.69422626495361L124.18967534722222,127.60859441757202L124.51059548611111,112.10022014379501L124.831515625,126.1138567328453L125.15243576388889,117.00137007236481L125.47335590277777,116.2622355222702L125.79427604166666,113.81048423051834L126.11519618055556,93.84466230869293L126.43611631944445,78.36607074737549L126.75703645833333,124.42623299360275L127.07795659722223,108.1163102388382L127.3988767361111,101.19877678155899L127.719796875,126.03938412666321L128.0407170138889,110.95968890190125L128.36163715277777,115.94173640012741L128.68255729166665,113.45467418432236L129.00347743055556,115.69272422790527L129.32439756944444,114.85452497005463L129.64531770833335,122.85662180185318L129.9662378472222,93.69391304254532L130.2871579861111,132.17224913835526L130.608078125,109.47995334863663L130.9289982638889,124.19080924987793L131.24991840277778,107.2631299495697L131.57083854166666,111.68600517511368L131.89175868055557,101.64001035690308L132.21267881944445,110.47799599170685L132.53359895833333,114.71396702528L132.8545190972222,103.88122540712357L133.17543923611112,115.12017452716827L133.496359375,104.66055554151535L133.81727951388888,115.19243162870407L134.13819965277779,110.4425795674324L134.45911979166667,126.3696209192276L134.78003993055555,112.04541277885437L135.10096006944443,116.11970472335815L135.42188020833333,110.12694400548935L135.74280034722221,107.91548001766205L136.06372048611112,110.99984228610992L136.384640625,130.37296396493912L136.70556076388888,115.60959005355835L137.0264809027778,91.07422649860382L137.34740104166667,88.81262880563736L137.66832118055555,81.36504113674164L137.98924131944443,68.23555970191956L138.31016145833334,125.03274321556091L138.63108159722222,121.26029795408249L138.9520017361111,121.04880166053772L139.272921875,113.65832126140594L139.5938420138889,104.60208731889725L139.91476215277777,97.21056246757507L140.23568229166665,128.60689026117325L140.55660243055556,116.09864687919617L140.87752256944444,137.6216415166855L141.19844270833335,107.74600446224213L141.51936284722223,101.36779868602753L141.8402829861111,123.07959651947021L142.16120312500001,102.9894003868103L142.4821232638889,113.33584928512573L142.80304340277777,123.35080593824387L143.12396354166665,98.62521493434906L143.44488368055556,110.46565246582031L143.76580381944444,107.21932625770569L144.08672395833335,127.21897155046463L144.40764409722223,136.9370927810669L144.7285642361111,117.86459398269653L145.049484375,143.16662764549255L145.3704045138889,152.35437816381454L145.69132465277778,141.40686285495758L146.01224479166666,129.3015353679657L146.33316493055557,138.9250545501709L146.65408506944442,143.79192745685577L146.97500520833333,141.1192587018013L147.2959253472222,83.24233317375183L147.61684548611112,97.27910596132278L147.937765625,127.34330356121063L148.2586857638889,134.48189163208008L148.57960590277779,124.26287645101547L148.90052604166667,130.54838973283768L149.22144618055557,132.44582176208496L149.54236631944443,126.9615193605423L149.86328645833333,121.5924654006958L150.18420659722221,127.49166852235794L150.50512673611112,148.36295664310455L150.826046875,127.62005174160004L151.14696701388888,109.11305522918701L151.4678871527778,117.9148542881012L151.78880729166664,98.03628104925156L152.10972743055555,120.11677050590515L152.43064756944443,143.68504518270493L152.75156770833334,130.6686810851097L153.07248784722222,132.46126699447632L153.39340798611113,118.16710531711578L153.714328125,125.73735809326172L154.0352482638889,153.4721319079399L154.3561684027778,136.74642223119736L154.67708854166665,132.21240252256393L154.99800868055556,123.4550085067749L155.31892881944444,149.44788926839828L155.63984895833335,139.3547991514206L155.96076909722223,150.98921585083008L156.2816892361111,138.19179636240005L156.60260937500001,124.53482437133789L156.92352951388887,114.6104924082756L157.24444965277777,123.61100113391876L157.56536979166665,135.3642110824585L157.88628993055556,139.63920664787292L158.20721006944444,134.96696054935455L158.52813020833332,121.02557051181793L158.84905034722223,113.27367800474167L159.1699704861111,108.75137937068939L159.49089062500002,119.67345857620239L159.81181076388887,137.40166300535202L160.13273090277778,146.0743192434311L160.45365104166666,120.31744247674942L160.77457118055557,140.246972322464L161.09549131944445,130.13590496778488L161.41641145833333,148.37492036819458L161.73733159722224,135.59199661016464L162.0582517361111,151.7953535914421L162.379171875,126.69219839572906L162.70009201388888,113.87145280838013L163.02101215277779,146.2755081653595L163.34193229166667,129.7953924536705L163.66285243055555,122.90484595298767L163.98377256944445,104.69256430864334L164.30469270833333,158.67018055915833L164.62561284722224,149.69119387865067L164.9465329861111,138.7294254899025L165.267453125,128.29975801706314L165.58837326388888,143.26240074634552L165.90929340277776,121.52845841646194L166.23021354166667,143.48846662044525L166.55113368055555,127.04969644546509L166.87205381944446,129.6564381122589L167.1929739583333,139.47950041294098L167.51389409722222,154.30264019966125L167.8348142361111,123.1695249080658L168.155734375,125.6995257139206L168.4766545138889,145.61752438545227L168.79757465277777,124.17898267507553L169.11849479166668,108.61219292879105L169.43941493055556,127.29907786846161L169.76033506944447,118.64824962615967L170.08125520833332,121.32765984535217L170.40217534722223,122.44210088253021L170.7230954861111,115.97107601165771L171.044015625,139.24956268072128L171.3649357638889,133.73739767074585L171.68585590277777,116.2601466178894L172.00677604166668,148.49017935991287L172.32769618055556,147.3654415011406L172.64861631944444,148.5783353447914L172.96953645833332,151.12587028741837L173.29045659722223,133.32257080078125L173.6113767361111,158.477589905262L173.932296875,126.66218358278275L174.2532170138889,155.79816913604736L174.57413715277778,136.33710247278214L174.8950572916667,136.43075501918793L175.21597743055554,142.60338306427002L175.53689756944445,130.9893490076065L175.85781770833333,133.4365532398224L176.1787378472222,129.80580532550812L176.49965798611112,145.74453610181808L176.820578125,153.0665785074234L177.1414982638889,101.92045104503632L177.46241840277779,163.54490268230438L177.78333854166667,134.66851097345352L178.10425868055555,119.49725210666656L178.42517881944443,144.26667845249176L178.74609895833333,121.96983969211578L179.06701909722221,159.3580631017685L179.38793923611112,122.89473903179169L179.708859375,145.23106652498245L180.0297795138889,149.1296478509903L180.35069965277776,130.7875692844391L180.67161979166667,149.51286685466766L180.99253993055555,126.54661864042282L181.31346006944443,134.62414813041687L181.63438020833334,139.88913667201996L181.95530034722222,144.31142109632492L182.27622048611113,131.89286345243454L182.597140625,140.65652418136597L182.9180607638889,153.30214995145798L183.23898090277777,133.198892891407L183.55990104166665,127.56943273544312L183.88082118055556,129.74198824167252L184.20174131944444,114.74472033977509L184.52266145833335,155.49507755041122L184.84358159722223,139.71419620513916L185.16450173611113,140.874192237854L185.485421875,100.65214848518372L185.80634201388887,149.89103239774704L186.12726215277777,130.39774596691132L186.44818229166665,141.55888867378235L186.76910243055556,140.84239447116852L187.09002256944444,148.82152390480042L187.41094270833335,124.73261618614197L187.73186284722223,145.84844326972961L188.0527829861111,154.3645477294922L188.373703125,157.64778846502304L188.69462326388887,144.234184384346L189.01554340277778,153.58707439899445L189.33646354166666,153.15096813440323L189.65738368055557,122.09423500299454L189.97830381944445,132.02318787574768L190.29922395833336,124.92456328868866L190.6201440972222,135.64290046691895L190.9410642361111,115.36290943622589L191.261984375,139.24724167585373L191.58290451388888,141.26747596263885L191.90382465277779,142.78211098909378L192.22474479166667,159.4335379600525L192.54566493055557,129.72795671224594L192.86658506944445,146.33534789085388L193.18750520833336,140.65811723470688L193.50842534722221,151.22097873687744L193.8293454861111,160.26193624734879L194.150265625,141.94039857387543L194.47118576388888,136.7817542552948L194.7921059027778,134.48197603225708L195.11302604166667,130.16615188121796L195.43394618055558,135.66436976194382L195.75486631944443,132.66874372959137L196.0757864583333,130.4170841574669L196.39670659722222,158.0745474100113L196.7176267361111,150.99569356441498L197.038546875,141.42199158668518L197.3594670138889,171.15399008989334L197.6803871527778,173.76399171352386L198.00130729166668,157.4202561378479L198.32222743055553,148.73460227251053L198.64314756944444,157.9602062702179L198.96406770833332,158.840141415596L199.28498784722223,151.12545883655548L199.6059079861111,129.87754547595978L199.92682812500001,134.0578018426895L200.2477482638889,130.5541289448738L200.5686684027778,168.71318972110748L200.88958854166665,154.18968111276627L201.21050868055553,125.6998211145401L201.53142881944444,139.61756855249405L201.85234895833332,153.73439490795135L202.17326909722223,149.29024028778076L202.4941892361111,170.89303529262543L202.81510937500002,134.56589090824127L203.1360295138889,165.05650985240936L203.45694965277775,141.32422453165054L203.77786979166666,141.77838188409805L204.09878993055554,124.09194499254227L204.41971006944445,116.86737424135208L204.74063020833333,151.174611389637L205.06155034722224,136.2194802761078L205.38247048611112,152.43659448623657L205.70339062500003,138.0417011976242L206.02431076388888,138.97989356517792L206.34523090277776,157.3336193561554L206.66615104166667,124.10462611913681L206.98707118055555,143.46878027915955L207.30799131944445,141.88933646678925L207.62891145833333,143.17332690954208L207.94983159722224,135.9634628891945L208.27075173611112,159.09756195545197L208.59167187499997,153.07699137926102L208.91259201388888,145.88340604305267L209.23351215277776,125.30707544088364L209.55443229166667,143.3190649151802L209.87535243055555,120.22739803791046L210.19627256944446,151.77626860141754L210.51719270833334,136.86254632472992L210.83811284722222,140.08251857757568L211.1590329861111,145.46258676052094L211.47995312499998,134.41132253408432L211.8008732638889,148.25787842273712L212.12179340277777,165.60697835683823L212.44271354166668,142.8112923502922L212.76363368055556,128.23652118444443L213.08455381944447,144.10643416643143L213.40547395833335,142.52595645189285L213.7263940972222,134.6812026500702L214.0473142361111,151.24192053079605L214.368234375,136.47360920906067L214.6891545138889,172.53592693805695L215.01007465277777,176.24785727262497L215.33099479166668,154.60482448339462L215.65191493055556,134.09618282318115L215.97283506944444,151.85810512304306L216.29375520833335,143.89205771684647L216.6146753472222,132.23150861263275L216.9355954861111,151.17728054523468L217.256515625,143.1441666483879L217.5774357638889,162.17773586511612L217.89835590277778,173.90690231323242L218.21927604166666,162.01245921850204L218.54019618055557,138.1131248474121L218.86111631944442,153.97215020656586L219.18203645833333,142.67958587408066L219.5029565972222,129.61324632167816L219.82387673611112,146.114156126976L220.144796875,130.35292947292328L220.4657170138889,133.41345924139023L220.78663715277779,143.18285357952118L221.10755729166667,143.16883260011673L221.42847743055557,148.21538293361664L221.74939756944443,157.86602622270584L222.07031770833333,134.02187901735306L222.39123784722221,146.9815789461136L222.71215798611112,143.65663397312164L223.033078125,142.10225701332092L223.35399826388888,143.520285487175L223.6749184027778,177.1839290857315L223.99583854166664,146.1103053689003L224.31675868055555,153.8892164826393L224.63767881944443,154.6758155822754L224.95859895833334,165.116708278656L225.27951909722222,136.84981244802475L225.60043923611113,164.1955225467682L225.921359375,128.43036729097366L226.2422795138889,152.03223323822021L226.5631996527778,139.68467724323273L226.88411979166665,115.10717689990997L227.20503993055556,156.9817761182785L227.52596006944444,142.94458132982254L227.84688020833335,144.9555948972702L228.16780034722223,149.98570829629898L228.4887204861111,135.54988092184067L228.80964062500001,121.64974147081375L229.13056076388887,148.18112701177597L229.45148090277777,125.26604640483856L229.77240104166665,135.80968576669693L230.09332118055556,154.31054216623306L230.41424131944444,118.42661476135254L230.73516145833332,149.60242599248886L231.05608159722223,162.94610452651978L231.3770017361111,132.99951857328415L231.69792187500002,155.393892288208L232.01884201388887,163.533582508564L232.33976215277778,149.23937863111496L232.66068229166666,144.61442828178406L232.98160243055557,127.15289676189423L233.30252256944445,168.42511081695557L233.62344270833333,139.31273621320724L233.94436284722224,163.82066971063614L234.2652829861111,149.19439333677292L234.586203125,139.1608475446701L234.90712326388888,162.41001570224762L235.22804340277779,161.09835255146027L235.54896354166667,139.28795421123505L235.86988368055555,143.65416526794434L236.19080381944445,149.3904338479042L236.51172395833333,141.97564619779587L236.83264409722224,155.45931297540665L237.1535642361111,144.29542726278305L237.474484375,137.6960824728012L237.79540451388888,128.60807186365128L238.11632465277776,124.26345670223236L238.43724479166667,141.21857661008835L238.75816493055555,163.78619223833084L239.07908506944446,145.37742698192596L239.4000052083333,124.89070826768875L239.72092534722222,166.7152054309845L240.0418454861111,125.69648730754852L240.362765625,149.073774933815L240.6836857638889,144.53798282146454L241.00460590277777,161.4697766304016L241.32552604166668,149.53928411006927L241.64644618055556,151.60559034347534L241.96736631944447,154.6324338912964L242.28828645833332,167.44996172189713L242.60920659722223,143.00536000728607L242.9301267361111,144.9534637928009L243.251046875,167.5184524655342L243.5719670138889,139.51435768604279L243.89288715277777,142.91488301753998L244.21380729166668,124.59737545251846L244.53472743055556,142.3654906153679L244.85564756944444,143.9503676891327L245.17656770833332,146.90849894285202L245.49748784722223,151.29258173704147L245.8184079861111,151.23006230592728L246.139328125,169.30999392271042L246.4602482638889,142.35456079244614L246.78116840277778,136.35115510225296L247.1020885416667,169.9164724946022L247.42300868055554,162.82418847084045L247.74392881944445,146.32778352499008L248.06484895833333,159.85404074192047L248.3857690972222,155.72593313455582L248.70668923611112,146.46128350496292L249.027609375,143.12005984783173L249.3485295138889,146.46966022253036L249.66944965277779,130.80661207437515L249.99036979166667,148.6080864071846L250.31128993055555,143.04083973169327L250.63221006944443,143.74689996242523L250.95313020833333,153.13727420568466L251.27405034722221,121.12406551837921L251.59497048611112,151.32634180784225L251.915890625,150.56122255325317L252.2368107638889,158.35202354192734L252.55773090277776,146.1768021583557L252.87865104166667,140.55177301168442L253.19957118055555,153.16032600402832L253.52049131944443,158.597037255764L253.84141145833334,159.14844471216202L254.16233159722222,148.16762298345566L254.48325173611113,150.55858504772186L254.804171875,160.449462890625L255.1250920138889,162.54001307487488L255.44601215277777,137.19989383220673L255.76693229166665,149.63342195749283L256.0878524305556,149.99416941404343" style="fill: none;" fill="none"></path></g></g></g></g></g></g><g transform="translate(41, 177)" clip-path="url(#clip_1)"><clipPath id="clip_1"><rect width="288" height="23"></rect></clipPath><g><g><line x1="0" y1="0" x2="0" y2="5" style="visibility: inherit;" fill="rgb(0, 0, 0)" stroke="rgb(204, 204, 204)" stroke-width="1px"></line><line x1="32.092013888888886" y1="0" x2="32.092013888888886" y2="5" style="visibility: inherit;" fill="rgb(0, 0, 0)" stroke="rgb(204, 204, 204)" stroke-width="1px"></line><line x1="64.18402777777777" y1="0" x2="64.18402777777777" y2="5" style="visibility: inherit;" fill="rgb(0, 0, 0)" stroke="rgb(204, 204, 204)" stroke-width="1px"></line><line x1="96.27604166666666" y1="0" x2="96.27604166666666" y2="5" style="visibility: inherit;" fill="rgb(0, 0, 0)" stroke="rgb(204, 204, 204)" stroke-width="1px"></line><line x1="128.36805555555554" y1="0" x2="128.36805555555554" y2="5" style="visibility: inherit;" fill="rgb(0, 0, 0)" stroke="rgb(204, 204, 204)" stroke-width="1px"></line><line x1="160.46006944444446" y1="0" x2="160.46006944444446" y2="5" style="visibility: inherit;" fill="rgb(0, 0, 0)" stroke="rgb(204, 204, 204)" stroke-width="1px"></line><line x1="192.55208333333331" y1="0" x2="192.55208333333331" y2="5" style="visibility: inherit;" fill="rgb(0, 0, 0)" stroke="rgb(204, 204, 204)" stroke-width="1px"></line><line x1="224.64409722222223" y1="0" x2="224.64409722222223" y2="5" style="visibility: inherit;" fill="rgb(0, 0, 0)" stroke="rgb(204, 204, 204)" stroke-width="1px"></line><line x1="256.7361111111111" y1="0" x2="256.7361111111111" y2="5" style="visibility: inherit;" fill="rgb(0, 0, 0)" stroke="rgb(204, 204, 204)" stroke-width="1px"></line><line x1="288.828125" y1="0" x2="288.828125" y2="5" style="visibility: inherit;" fill="rgb(0, 0, 0)" stroke="rgb(204, 204, 204)" stroke-width="1px"></line></g><g transform="translate(0, 8)"><text x="0" y="0" dx="0em" dy="0.95em" style="text-anchor: middle; visibility: hidden; font-family: Roboto, sans-serif; font-size: 12px; font-weight: 200;" fill="rgb(255, 255, 255)" stroke="none" stroke-width="1px">-5k</text><text x="32.092013888888886" y="0" dx="0em" dy="0.95em" style="text-anchor: middle; visibility: inherit; font-family: Roboto, sans-serif; font-size: 12px; font-weight: 200;" fill="rgb(255, 255, 255)" stroke="none" stroke-width="1px">0</text><text x="64.18402777777777" y="0" dx="0em" dy="0.95em" style="text-anchor: middle; visibility: inherit; font-family: Roboto, sans-serif; font-size: 12px; font-weight: 200;" fill="rgb(255, 255, 255)" stroke="none" stroke-width="1px">5k</text><text x="96.27604166666666" y="0" dx="0em" dy="0.95em" style="text-anchor: middle; visibility: inherit; font-family: Roboto, sans-serif; font-size: 12px; font-weight: 200;" fill="rgb(255, 255, 255)" stroke="none" stroke-width="1px">10k</text><text x="128.36805555555554" y="0" dx="0em" dy="0.95em" style="text-anchor: middle; visibility: inherit; font-family: Roboto, sans-serif; font-size: 12px; font-weight: 200;" fill="rgb(255, 255, 255)" stroke="none" stroke-width="1px">15k</text><text x="160.46006944444446" y="0" dx="0em" dy="0.95em" style="text-anchor: middle; visibility: inherit; font-family: Roboto, sans-serif; font-size: 12px; font-weight: 200;" fill="rgb(255, 255, 255)" stroke="none" stroke-width="1px">20k</text><text x="192.55208333333331" y="0" dx="0em" dy="0.95em" style="text-anchor: middle; visibility: inherit; font-family: Roboto, sans-serif; font-size: 12px; font-weight: 200;" fill="rgb(255, 255, 255)" stroke="none" stroke-width="1px">25k</text><text x="224.64409722222223" y="0" dx="0em" dy="0.95em" style="text-anchor: middle; visibility: inherit; font-family: Roboto, sans-serif; font-size: 12px; font-weight: 200;" fill="rgb(255, 255, 255)" stroke="none" stroke-width="1px">30k</text><text x="256.7361111111111" y="0" dx="0em" dy="0.95em" style="text-anchor: middle; visibility: inherit; font-family: Roboto, sans-serif; font-size: 12px; font-weight: 200;" fill="rgb(255, 255, 255)" stroke="none" stroke-width="1px">35k</text><text x="288.828125" y="0" dx="0em" dy="0.95em" style="text-anchor: middle; visibility: hidden; font-family: Roboto, sans-serif; font-size: 12px; font-weight: 200;" fill="rgb(255, 255, 255)" stroke="none" stroke-width="1px">40k</text></g><line x1="0" y1="0" x2="288.828125" y2="0" fill="rgb(0, 0, 0)" stroke="rgb(204, 204, 204)" stroke-width="1px"></line></g></g></g></g></svg>